<svg width="156" height="77" viewBox="0 0 156 77" fill="none" xmlns="http://www.w3.org/2000/svg">
<path d="M75.1924 8.28516C66.4779 15.571 60.8804 16.3503 40.1916 16.2594C28.0095 15.9347 17.3729 24.4673 15.0482 36.4287C14.5157 39.195 14.4767 41.9353 14.8404 44.5717C7.16488 47.4159 1.77514 53.7278 0.0478302 62.4552C-0.224903 63.8579 0.684208 65.2345 2.08684 65.5072C2.25567 65.5462 2.42451 65.5592 2.59334 65.5592C3.81415 65.5592 4.8921 64.702 5.13886 63.4682C6.46356 56.7798 10.3727 51.9615 16.0742 49.6497C18.9574 57.6369 25.8147 63.9488 34.7629 65.7021C53.0101 69.3125 72.8417 56.8837 76.647 37.6625C79.2964 24.3115 77.3093 15.9866 75.1924 8.31113V8.28516Z" fill="#38BDF8"/>
<g filter="url(#filter0_dd_369_971)">
<path d="M45.6102 53.9407L55.6517 43.8991C57.7913 41.796 59.9552 39.2917 59.9552 36.0094C59.9552 31.6451 56.4175 28.1196 52.0654 28.1196C49.5368 28.1196 47.7619 28.8369 45.6102 30.9886C43.4584 28.8369 41.6835 28.1196 39.1549 28.1196C34.7906 28.1196 31.2651 31.6573 31.2651 36.0094C31.2651 39.316 33.4169 41.8203 35.5686 43.8991L45.6102 53.9407Z" fill="#E0F2FE"/>
</g>
<path d="M94.9508 13.4098C94.5149 13.4098 94.1499 13.2687 93.8584 12.9839C93.5643 12.7017 93.4199 12.3438 93.4199 11.9101C93.4199 11.4765 93.567 11.095 93.8584 10.8102C94.1525 10.5281 94.5149 10.3844 94.9508 10.3844C95.3867 10.3844 95.7464 10.5255 96.03 10.8102C96.3136 11.0924 96.4581 11.4608 96.4581 11.9101C96.4581 12.3595 96.3163 12.7017 96.03 12.9839C95.7438 13.2661 95.3841 13.4098 94.9508 13.4098ZM93.9451 27.5281V15.3091H95.9303V27.5281H93.9451Z" fill="#0C4A6E"/>
<path d="M99.5964 27.5278V15.3088H101.532V16.8319H101.884C102.117 16.3982 102.503 15.9985 103.039 15.6327C103.575 15.267 104.328 15.0841 105.3 15.0841C106.271 15.0841 107.028 15.2931 107.624 15.7085C108.217 16.1239 108.648 16.6334 108.918 17.2316H109.27C109.554 16.6307 109.987 16.1239 110.565 15.7085C111.142 15.2931 111.951 15.0841 112.988 15.0841C113.808 15.0841 114.53 15.2513 115.149 15.5831C115.769 15.9175 116.258 16.3956 116.62 17.02C116.98 17.6444 117.161 18.3916 117.161 19.2564V27.5278H115.176V19.4314C115.176 18.6163 114.937 17.9684 114.459 17.4955C113.981 17.0226 113.317 16.7823 112.463 16.7823C111.56 16.7823 110.819 17.0749 110.242 17.6575C109.664 18.2401 109.375 19.0813 109.375 20.1812V27.5278H107.39V19.4314C107.39 18.6163 107.151 17.9684 106.673 17.4955C106.195 17.0226 105.531 16.7823 104.678 16.7823C103.774 16.7823 103.034 17.0749 102.456 17.6575C101.878 18.2401 101.589 19.0813 101.589 20.1812V27.5278H99.6043H99.5964Z" fill="#0C4A6E"/>
<path d="M120.192 32.5258V15.309H122.127V17.3338H122.479C122.797 16.7172 123.311 16.1686 124.023 15.6852C124.734 15.2019 125.727 14.9615 126.998 14.9615C128.054 14.9615 129.02 15.215 129.9 15.7244C130.779 16.2339 131.483 16.9523 132.008 17.885C132.536 18.8177 132.798 19.9437 132.798 21.2578V21.5818C132.798 22.8802 132.539 24.0063 132.021 24.9546C131.501 25.903 130.803 26.6293 129.923 27.1283C129.043 27.6273 128.069 27.8781 126.998 27.8781C126.145 27.8781 125.42 27.7657 124.826 27.5411C124.233 27.3164 123.75 27.029 123.382 26.6789C123.014 26.3288 122.728 25.9709 122.529 25.6051H122.177V32.5258H120.192ZM126.47 26.1277C127.741 26.1277 128.776 25.7253 129.571 24.9154C130.367 24.1081 130.763 22.9795 130.763 21.5295V21.3049C130.763 19.8549 130.364 18.7263 129.571 17.919C128.776 17.1117 127.741 16.7067 126.47 16.7067C125.199 16.7067 124.18 17.1117 123.369 17.919C122.558 18.7263 122.151 19.8549 122.151 21.3049V21.5295C122.151 22.9795 122.555 24.1081 123.369 24.9154C124.18 25.7227 125.215 26.1277 126.47 26.1277Z" fill="#0C4A6E"/>
<path d="M135.361 27.5281V15.3092H137.296V16.8088H137.648C137.866 16.2758 138.199 15.8839 138.653 15.6331C139.105 15.3823 139.699 15.2595 140.436 15.2595H141.894V17.0596H140.31C139.423 17.0596 138.706 17.3052 138.162 17.7963C137.619 18.2875 137.346 19.0504 137.346 20.0823V27.5281H135.361Z" fill="#0C4A6E"/>
<path d="M149.551 27.8781C148.312 27.8781 147.22 27.6194 146.274 27.1048C145.329 26.5875 144.591 25.8586 144.063 24.918C143.536 23.9775 143.273 22.8646 143.273 21.5818V21.2578C143.273 19.9907 143.536 18.883 144.063 17.9346C144.591 16.9863 145.326 16.2522 146.274 15.7349C147.22 15.2176 148.312 14.9615 149.551 14.9615C150.791 14.9615 151.883 15.2202 152.829 15.7349C153.774 16.2522 154.512 16.9837 155.039 17.9346C155.567 18.883 155.83 19.9934 155.83 21.2578V21.5818C155.83 22.8646 155.567 23.9775 155.039 24.918C154.512 25.8586 153.776 26.5875 152.829 27.1048C151.881 27.622 150.791 27.8781 149.551 27.8781ZM149.551 26.1041C150.856 26.1041 151.899 25.6914 152.679 24.8684C153.459 24.0454 153.847 22.9325 153.847 21.5322V21.3075C153.847 19.9071 153.459 18.7968 152.679 17.9712C151.899 17.1457 150.859 16.7355 149.551 16.7355C148.244 16.7355 147.225 17.1483 146.437 17.9712C145.649 18.7968 145.255 19.9071 145.255 21.3075V21.5322C145.255 22.9325 145.649 24.0428 146.437 24.8684C147.225 25.694 148.262 26.1041 149.551 26.1041Z" fill="#0C4A6E"/>
<path d="M98.5747 49.2051L94.179 36.9861H96.2875L99.9795 47.7316H100.331L104.023 36.9861H106.132L101.736 49.2051H98.572H98.5747Z" fill="#0C4A6E"/>
<path d="M113.864 49.5556C112.624 49.5556 111.537 49.2943 110.6 48.7692C109.662 48.2441 108.932 47.5073 108.415 46.559C107.895 45.6106 107.638 44.5107 107.638 43.2619V42.9615C107.638 41.6944 107.898 40.5866 108.415 39.6383C108.935 38.6899 109.655 37.9506 110.576 37.428C111.498 36.9029 112.551 36.6417 113.74 36.6417C114.93 36.6417 115.917 36.8872 116.805 37.3784C117.692 37.8696 118.388 38.575 118.89 39.4894C119.391 40.4064 119.643 41.4801 119.643 42.7133V43.612H109.623C109.673 44.9287 110.101 45.9581 110.905 46.6974C111.708 47.4394 112.714 47.8104 113.919 47.8104C114.975 47.8104 115.786 47.57 116.356 47.0867C116.926 46.6034 117.362 46.0286 117.661 45.3624L119.368 46.188C119.116 46.7053 118.769 47.2199 118.325 47.7372C117.881 48.2545 117.304 48.6856 116.592 49.0357C115.881 49.3858 114.972 49.5608 113.867 49.5608L113.864 49.5556ZM109.644 41.9844H117.632C117.566 40.8505 117.175 39.9701 116.464 39.3352C115.752 38.703 114.843 38.3869 113.738 38.3869C112.632 38.3869 111.695 38.703 110.975 39.3352C110.256 39.9675 109.812 40.8505 109.644 41.9844Z" fill="#0C4A6E"/>
<path d="M123.102 49.2045V36.9855H125.037V38.5087H125.389C125.623 38.075 126.009 37.6753 126.545 37.3095C127.08 36.9437 127.834 36.7609 128.805 36.7609C129.777 36.7609 130.533 36.9699 131.129 37.3853C131.723 37.8007 132.153 38.3101 132.424 38.9084H132.776C133.059 38.3075 133.493 37.8007 134.07 37.3853C134.648 36.9699 135.457 36.7609 136.494 36.7609C137.313 36.7609 138.035 36.9281 138.655 37.2599C139.275 37.5943 139.763 38.0724 140.126 38.6968C140.485 39.3212 140.667 40.0684 140.667 40.9331V49.2045H138.681V41.1082C138.681 40.2931 138.442 39.6451 137.964 39.1723C137.487 38.6994 136.822 38.459 135.969 38.459C135.066 38.459 134.325 38.7516 133.747 39.3342C133.17 39.9168 132.881 40.7581 132.881 41.858V49.2045H130.896V41.1082C130.896 40.2931 130.657 39.6451 130.179 39.1723C129.701 38.6994 129.037 38.459 128.183 38.459C127.28 38.459 126.539 38.7516 125.962 39.3342C125.384 39.9168 125.095 40.7581 125.095 41.858V49.2045H123.11H123.102Z" fill="#38BDF8"/>
<path d="M149.573 49.5554C148.333 49.5554 147.246 49.2941 146.309 48.769C145.371 48.2439 144.641 47.5071 144.124 46.5588C143.604 45.6104 143.347 44.5105 143.347 43.2617V42.9613C143.347 41.6942 143.607 40.5865 144.124 39.6381C144.644 38.6897 145.363 37.9504 146.285 37.4279C147.207 36.9027 148.26 36.6415 149.449 36.6415C150.639 36.6415 151.626 36.8871 152.514 37.3782C153.401 37.8694 154.097 38.5748 154.599 39.4892C155.1 40.4062 155.352 41.48 155.352 42.7131V43.6118H145.332C145.382 44.9285 145.81 45.9579 146.613 46.6973C147.417 47.4392 148.422 47.8102 149.628 47.8102C150.683 47.8102 151.495 47.5698 152.065 47.0865C152.634 46.6032 153.07 46.0284 153.37 45.3622L155.076 46.1878C154.824 46.7051 154.478 47.2198 154.034 47.7371C153.59 48.2543 153.013 48.6854 152.301 49.0355C151.589 49.3856 150.681 49.5606 149.575 49.5606L149.573 49.5554ZM145.353 41.9842H153.341C153.275 40.8503 152.884 39.9699 152.172 39.335C151.461 38.7028 150.552 38.3867 149.447 38.3867C148.341 38.3867 147.404 38.7028 146.684 39.335C145.965 39.9673 145.521 40.8503 145.353 41.9842Z" fill="#38BDF8"/>
<path d="M95.0269 71.233C94.5411 71.233 94.1341 71.0736 93.8085 70.7575C93.4829 70.4414 93.3201 70.0338 93.3201 69.5322C93.3201 69.0306 93.4829 68.6256 93.8085 68.3069C94.1341 67.9908 94.5411 67.8314 95.0269 67.8314C95.5127 67.8314 95.9381 67.9908 96.2584 68.3069C96.5762 68.623 96.7363 69.0306 96.7363 69.5322C96.7363 70.0338 96.5762 70.4414 96.2584 70.7575C95.9407 71.0736 95.5311 71.233 95.0269 71.233Z" fill="#38BDF8"/>
<path d="M101.306 56.7644C100.87 56.7644 100.505 56.6233 100.214 56.3386C99.9198 56.0564 99.7754 55.6985 99.7754 55.2648C99.7754 54.8311 99.9224 54.4497 100.214 54.1649C100.508 53.8828 100.87 53.7391 101.306 53.7391C101.742 53.7391 102.102 53.8802 102.386 54.1649C102.669 54.4471 102.814 54.8155 102.814 55.2648C102.814 55.7142 102.672 56.0564 102.386 56.3386C102.099 56.6207 101.74 56.7644 101.306 56.7644ZM100.301 70.8827V58.6638H102.286V70.8827H100.301Z" fill="#38BDF8"/>
<path d="M112.13 71.2326C110.891 71.2326 109.798 70.974 108.853 70.4593C107.908 69.942 107.17 69.2131 106.642 68.2726C106.114 67.3321 105.852 66.2191 105.852 64.9363V64.6124C105.852 63.3453 106.114 62.2376 106.642 61.2892C107.17 60.3408 107.905 59.6067 108.853 59.0894C109.798 58.5721 110.891 58.3161 112.13 58.3161C113.369 58.3161 114.462 58.5747 115.407 59.0894C116.352 59.6067 117.09 60.3382 117.618 61.2892C118.146 62.2376 118.408 63.3479 118.408 64.6124V64.9363C118.408 66.2191 118.146 67.3321 117.618 68.2726C117.09 69.2131 116.355 69.942 115.407 70.4593C114.459 70.9766 113.369 71.2326 112.13 71.2326ZM112.13 69.4587C113.435 69.4587 114.478 69.0459 115.257 68.223C116.037 67.4 116.426 66.287 116.426 64.8867V64.662C116.426 63.2617 116.037 62.1514 115.257 61.3258C114.478 60.5002 113.438 60.09 112.13 60.09C110.822 60.09 109.804 60.5028 109.016 61.3258C108.228 62.1514 107.834 63.2617 107.834 64.662V64.8867C107.834 66.287 108.228 67.3974 109.016 68.223C109.804 69.0485 110.841 69.4587 112.13 69.4587Z" fill="#38BDF8"/>
<rect x="123.894" y="69.5966" width="10.7007" height="2.03824" fill="#0C4A6E"/>
<defs>
<filter id="filter0_dd_369_971" x="30.2175" y="27.4212" width="30.7852" height="27.9163" filterUnits="userSpaceOnUse" color-interpolation-filters="sRGB">
<feFlood flood-opacity="0" result="BackgroundImageFix"/>
<feColorMatrix in="SourceAlpha" type="matrix" values="0 0 0 0 0 0 0 0 0 0 0 0 0 0 0 0 0 0 127 0" result="hardAlpha"/>
<feOffset dy="0.349206"/>
<feGaussianBlur stdDeviation="0.349206"/>
<feColorMatrix type="matrix" values="0 0 0 0 0 0 0 0 0 0 0 0 0 0 0 0 0 0 0.06 0"/>
<feBlend mode="normal" in2="BackgroundImageFix" result="effect1_dropShadow_369_971"/>
<feColorMatrix in="SourceAlpha" type="matrix" values="0 0 0 0 0 0 0 0 0 0 0 0 0 0 0 0 0 0 127 0" result="hardAlpha"/>
<feOffset dy="0.349206"/>
<feGaussianBlur stdDeviation="0.523809"/>
<feColorMatrix type="matrix" values="0 0 0 0 0 0 0 0 0 0 0 0 0 0 0 0 0 0 0.1 0"/>
<feBlend mode="normal" in2="effect1_dropShadow_369_971" result="effect2_dropShadow_369_971"/>
<feBlend mode="normal" in="SourceGraphic" in2="effect2_dropShadow_369_971" result="shape"/>
</filter>
</defs>
</svg>
