<svg width="156" height="76" viewBox="0 0 156 76" fill="none" xmlns="http://www.w3.org/2000/svg">
<path d="M75.1919 7.81177C66.4774 15.0976 60.8799 15.8769 40.1911 15.786C28.009 15.4613 17.3724 23.994 15.0477 35.9553C14.5152 38.7216 14.4762 41.4619 14.8399 44.0983C7.16439 46.9425 1.77465 53.2544 0.0473419 61.9818C-0.225392 63.3845 0.68372 64.7611 2.08635 65.0339C2.25518 65.0728 2.42402 65.0858 2.59285 65.0858C3.81366 65.0858 4.89161 64.2286 5.13837 62.9948C6.46307 56.3064 10.3723 51.4881 16.0737 49.1763C18.9569 57.1635 25.8142 63.4754 34.7624 65.2287C53.0096 68.8391 72.8412 56.4103 76.6465 37.1891C79.2959 23.8381 77.3088 15.5132 75.1919 7.83774V7.81177Z" fill="#38BDF8"/>
<g filter="url(#filter0_dd_519_477)">
<path d="M45.6097 53.4673L55.6512 43.4258C57.7908 41.3226 59.9547 38.8183 59.9547 35.536C59.9547 31.1717 56.4171 27.6462 52.0649 27.6462C49.5363 27.6462 47.7614 28.3635 45.6097 30.5152C43.4579 28.3635 41.683 27.6462 39.1544 27.6462C34.7901 27.6462 31.2646 31.1839 31.2646 35.536C31.2646 38.8426 33.4164 41.3469 35.5682 43.4258L45.6097 53.4673Z" fill="#0C4A6E"/>
</g>
<path d="M123.103 48.7313V36.5123H125.038V38.0354H125.39C125.623 37.6017 126.009 37.202 126.545 36.8362C127.081 36.4705 127.834 36.2876 128.806 36.2876C129.778 36.2876 130.534 36.4966 131.13 36.912C131.723 37.3274 132.154 37.8369 132.424 38.4351H132.776C133.06 37.8342 133.493 37.3274 134.071 36.912C134.649 36.4966 135.457 36.2876 136.494 36.2876C137.314 36.2876 138.036 36.4548 138.656 36.7866C139.275 37.121 139.764 37.5991 140.126 38.2235C140.486 38.8479 140.667 39.5951 140.667 40.4599V48.7313H138.682V40.6349C138.682 39.8198 138.443 39.1719 137.965 38.699C137.487 38.2261 136.823 37.9858 135.969 37.9858C135.066 37.9858 134.326 38.2784 133.748 38.861C133.17 39.4436 132.881 40.2848 132.881 41.3847V48.7313H130.896V40.6349C130.896 39.8198 130.657 39.1719 130.179 38.699C129.701 38.2261 129.037 37.9858 128.184 37.9858C127.28 37.9858 126.54 38.2784 125.962 38.861C125.384 39.4436 125.096 40.2848 125.096 41.3847V48.7313H123.11H123.103Z" fill="#38BDF8"/>
<path d="M149.573 49.0821C148.333 49.0821 147.246 48.8209 146.309 48.2957C145.371 47.7706 144.641 47.0339 144.124 46.0855C143.604 45.1372 143.347 44.0373 143.347 42.7885V42.488C143.347 41.2209 143.607 40.1132 144.124 39.1648C144.644 38.2165 145.363 37.4771 146.285 36.9546C147.207 36.4295 148.26 36.1682 149.449 36.1682C150.639 36.1682 151.626 36.4138 152.514 36.905C153.401 37.3961 154.097 38.1015 154.599 39.0159C155.1 39.9329 155.352 41.0067 155.352 42.2398V43.1385H145.332C145.382 44.4553 145.81 45.4846 146.613 46.224C147.417 46.966 148.422 47.3369 149.628 47.3369C150.683 47.3369 151.495 47.0966 152.065 46.6133C152.634 46.1299 153.07 45.5552 153.37 44.889L155.076 45.7145C154.824 46.2318 154.478 46.7465 154.034 47.2638C153.59 47.7811 153.013 48.2121 152.301 48.5622C151.589 48.9123 150.681 49.0874 149.575 49.0874L149.573 49.0821ZM145.353 41.5109H153.341C153.275 40.3771 152.884 39.4966 152.172 38.8618C151.461 38.2295 150.552 37.9134 149.447 37.9134C148.341 37.9134 147.404 38.2295 146.684 38.8618C145.965 39.494 145.521 40.3771 145.353 41.5109Z" fill="#38BDF8"/>
<path d="M95.0271 70.7597C94.5413 70.7597 94.1343 70.6003 93.8087 70.2842C93.4831 69.9681 93.3203 69.5605 93.3203 69.0589C93.3203 68.5573 93.4831 68.1524 93.8087 67.8336C94.1343 67.5175 94.5413 67.3582 95.0271 67.3582C95.5129 67.3582 95.9383 67.5175 96.2587 67.8336C96.5764 68.1498 96.7366 68.5573 96.7366 69.0589C96.7366 69.5605 96.5764 69.9681 96.2587 70.2842C95.9409 70.6003 95.5313 70.7597 95.0271 70.7597Z" fill="#38BDF8"/>
<path d="M101.306 56.2912C100.87 56.2912 100.505 56.1501 100.214 55.8654C99.9198 55.5832 99.7754 55.2253 99.7754 54.7916C99.7754 54.3579 99.9224 53.9765 100.214 53.6917C100.508 53.4096 100.87 53.2659 101.306 53.2659C101.742 53.2659 102.102 53.4069 102.386 53.6917C102.669 53.9739 102.814 54.3422 102.814 54.7916C102.814 55.241 102.672 55.5832 102.386 55.8654C102.099 56.1475 101.74 56.2912 101.306 56.2912ZM100.301 70.4095V58.1906H102.286V70.4095H100.301Z" fill="#38BDF8"/>
<path d="M112.13 70.7593C110.891 70.7593 109.798 70.5007 108.853 69.986C107.908 69.4687 107.17 68.7398 106.642 67.7993C106.114 66.8587 105.852 65.7458 105.852 64.463V64.1391C105.852 62.872 106.114 61.7642 106.642 60.8159C107.17 59.8675 107.905 59.1334 108.853 58.6161C109.798 58.0988 110.891 57.8428 112.13 57.8428C113.369 57.8428 114.462 58.1014 115.407 58.6161C116.352 59.1334 117.09 59.8649 117.618 60.8159C118.146 61.7642 118.408 62.8746 118.408 64.1391V64.463C118.408 65.7458 118.146 66.8587 117.618 67.7993C117.09 68.7398 116.355 69.4687 115.407 69.986C114.459 70.5033 113.369 70.7593 112.13 70.7593ZM112.13 68.9854C113.435 68.9854 114.478 68.5726 115.257 67.7496C116.037 66.9267 116.426 65.8137 116.426 64.4134V64.1887C116.426 62.7884 116.037 61.678 115.257 60.8525C114.478 60.0269 113.438 59.6167 112.13 59.6167C110.822 59.6167 109.804 60.0295 109.016 60.8525C108.228 61.678 107.834 62.7884 107.834 64.1887V64.4134C107.834 65.8137 108.228 66.9241 109.016 67.7496C109.804 68.5752 110.841 68.9854 112.13 68.9854Z" fill="#38BDF8"/>
<path d="M94.9508 12.9365C94.5149 12.9365 94.1499 12.7954 93.8584 12.5106C93.5643 12.2285 93.4199 11.8706 93.4199 11.4369C93.4199 11.0032 93.567 10.6218 93.8584 10.337C94.1525 10.0548 94.5149 9.91113 94.9508 9.91113C95.3867 9.91113 95.7464 10.0522 96.03 10.337C96.3136 10.6191 96.4581 10.9875 96.4581 11.4369C96.4581 11.8862 96.3163 12.2285 96.03 12.5106C95.7438 12.7928 95.3841 12.9365 94.9508 12.9365ZM93.9451 27.0548V14.8358H95.9303V27.0548H93.9451Z" fill="#F0F9FF"/>
<path d="M99.5967 27.0545V14.8355H101.532V16.3586H101.884C102.118 15.925 102.504 15.5252 103.039 15.1595C103.575 14.7937 104.329 14.6108 105.3 14.6108C106.272 14.6108 107.028 14.8198 107.624 15.2352C108.217 15.6506 108.648 16.1601 108.919 16.7584H109.27C109.554 16.1575 109.987 15.6506 110.565 15.2352C111.143 14.8198 111.951 14.6108 112.989 14.6108C113.808 14.6108 114.53 14.778 115.15 15.1098C115.769 15.4442 116.258 15.9223 116.62 16.5468C116.98 17.1712 117.161 17.9183 117.161 18.7831V27.0545H115.176V18.9582C115.176 18.143 114.937 17.4951 114.459 17.0222C113.981 16.5494 113.317 16.309 112.463 16.309C111.56 16.309 110.82 16.6016 110.242 17.1842C109.664 17.7668 109.375 18.6081 109.375 19.708V27.0545H107.39V18.9582C107.39 18.143 107.151 17.4951 106.673 17.0222C106.196 16.5494 105.531 16.309 104.678 16.309C103.774 16.309 103.034 16.6016 102.456 17.1842C101.879 17.7668 101.59 18.6081 101.59 19.708V27.0545H99.6046H99.5967Z" fill="#F0F9FF"/>
<path d="M120.191 32.0526V14.8358H122.127V16.8605H122.479C122.796 16.2439 123.311 15.6953 124.023 15.212C124.734 14.7286 125.727 14.4883 126.998 14.4883C128.053 14.4883 129.02 14.7417 129.899 15.2512C130.779 15.7606 131.483 16.4791 132.008 17.4117C132.536 18.3444 132.798 19.4704 132.798 20.7846V21.1085C132.798 22.407 132.538 23.533 132.021 24.4814C131.501 25.4297 130.803 26.156 129.923 26.655C129.043 27.154 128.069 27.4048 126.998 27.4048C126.144 27.4048 125.42 27.2925 124.826 27.0678C124.233 26.8431 123.749 26.5557 123.382 26.2056C123.014 25.8556 122.728 25.4976 122.528 25.1319H122.177V32.0526H120.191ZM126.47 25.6544C127.741 25.6544 128.775 25.2521 129.571 24.4422C130.367 23.6349 130.763 22.5062 130.763 21.0563V20.8316C130.763 19.3816 130.364 18.253 129.571 17.4457C128.775 16.6384 127.741 16.2335 126.47 16.2335C125.199 16.2335 124.18 16.6384 123.369 17.4457C122.557 18.253 122.15 19.3816 122.15 20.8316V21.0563C122.15 22.5062 122.555 23.6349 123.369 24.4422C124.18 25.2494 125.215 25.6544 126.47 25.6544Z" fill="#F0F9FF"/>
<path d="M135.36 27.0547V14.8358H137.296V16.3354H137.647C137.865 15.8024 138.199 15.4105 138.653 15.1597C139.105 14.9089 139.698 14.7861 140.436 14.7861H141.894V16.5862H140.31C139.423 16.5862 138.706 16.8318 138.162 17.3229C137.619 17.8141 137.346 18.577 137.346 19.6089V27.0547H135.36Z" fill="#F0F9FF"/>
<path d="M149.551 27.4048C148.312 27.4048 147.219 27.1462 146.274 26.6315C145.329 26.1142 144.591 25.3853 144.063 24.4448C143.535 23.5042 143.272 22.3913 143.272 21.1085V20.7846C143.272 19.5175 143.535 18.4097 144.063 17.4614C144.591 16.513 145.326 15.7789 146.274 15.2616C147.219 14.7443 148.312 14.4883 149.551 14.4883C150.79 14.4883 151.883 14.7469 152.828 15.2616C153.773 15.7789 154.511 16.5104 155.039 17.4614C155.567 18.4097 155.829 19.5201 155.829 20.7846V21.1085C155.829 22.3913 155.567 23.5042 155.039 24.4448C154.511 25.3853 153.776 26.1142 152.828 26.6315C151.88 27.1488 150.79 27.4048 149.551 27.4048ZM149.551 25.6309C150.856 25.6309 151.898 25.2181 152.678 24.3951C153.458 23.5722 153.847 22.4592 153.847 21.0589V20.8342C153.847 19.4339 153.458 18.3235 152.678 17.498C151.898 16.6724 150.859 16.2622 149.551 16.2622C148.243 16.2622 147.224 16.675 146.437 17.498C145.649 18.3235 145.255 19.4339 145.255 20.8342V21.0589C145.255 22.4592 145.649 23.5696 146.437 24.3951C147.224 25.2207 148.262 25.6309 149.551 25.6309Z" fill="#F0F9FF"/>
<path d="M98.5744 48.7319L94.1787 36.5129H96.2873L99.9793 47.2584H100.331L104.023 36.5129H106.132L101.736 48.7319H98.5718H98.5744Z" fill="#F0F9FF"/>
<path d="M113.864 49.0824C112.624 49.0824 111.537 48.8211 110.6 48.296C109.662 47.7709 108.932 47.0341 108.415 46.0858C107.895 45.1374 107.638 44.0375 107.638 42.7887V42.4883C107.638 41.2212 107.898 40.1134 108.415 39.1651C108.935 38.2167 109.654 37.4774 110.576 36.9548C111.498 36.4297 112.551 36.1685 113.74 36.1685C114.93 36.1685 115.917 36.414 116.805 36.9052C117.692 37.3964 118.388 38.1018 118.89 39.0162C119.391 39.9332 119.643 41.0069 119.643 42.2401V43.1388H109.623C109.673 44.4555 110.101 45.4849 110.904 46.2242C111.708 46.9662 112.714 47.3372 113.919 47.3372C114.974 47.3372 115.786 47.0968 116.356 46.6135C116.925 46.1302 117.361 45.5554 117.661 44.8892L119.367 45.7148C119.115 46.2321 118.769 46.7467 118.325 47.264C117.881 47.7813 117.304 48.2124 116.592 48.5625C115.88 48.9126 114.972 49.0876 113.866 49.0876L113.864 49.0824ZM109.644 41.5112H117.632C117.566 40.3773 117.175 39.4969 116.463 38.862C115.752 38.2298 114.843 37.9137 113.738 37.9137C112.632 37.9137 111.695 38.2298 110.975 38.862C110.256 39.4943 109.812 40.3773 109.644 41.5112Z" fill="#F0F9FF"/>
<rect x="123.894" y="69.123" width="10.7007" height="2.03824" fill="#F0F9FF"/>
<defs>
<filter id="filter0_dd_519_477" x="30.217" y="26.9478" width="30.7857" height="27.9163" filterUnits="userSpaceOnUse" color-interpolation-filters="sRGB">
<feFlood flood-opacity="0" result="BackgroundImageFix"/>
<feColorMatrix in="SourceAlpha" type="matrix" values="0 0 0 0 0 0 0 0 0 0 0 0 0 0 0 0 0 0 127 0" result="hardAlpha"/>
<feOffset dy="0.349206"/>
<feGaussianBlur stdDeviation="0.349206"/>
<feColorMatrix type="matrix" values="0 0 0 0 0 0 0 0 0 0 0 0 0 0 0 0 0 0 0.06 0"/>
<feBlend mode="normal" in2="BackgroundImageFix" result="effect1_dropShadow_519_477"/>
<feColorMatrix in="SourceAlpha" type="matrix" values="0 0 0 0 0 0 0 0 0 0 0 0 0 0 0 0 0 0 127 0" result="hardAlpha"/>
<feOffset dy="0.349206"/>
<feGaussianBlur stdDeviation="0.523809"/>
<feColorMatrix type="matrix" values="0 0 0 0 0 0 0 0 0 0 0 0 0 0 0 0 0 0 0.1 0"/>
<feBlend mode="normal" in2="effect1_dropShadow_519_477" result="effect2_dropShadow_519_477"/>
<feBlend mode="normal" in="SourceGraphic" in2="effect2_dropShadow_519_477" result="shape"/>
</filter>
</defs>
</svg>
